<svg width="161" height="48" viewBox="0 0 161 48" fill="none" xmlns="http://www.w3.org/2000/svg">
<rect width="161" height="48" rx="24" fill="#70BDFA"/>
<circle cx="29" cy="24" r="16" fill="white"/>
<path d="M53.35 29H55.294V24.89H58.996V29H60.934V19.1H58.996V23.186H55.294V19.1H53.35V29ZM64.0431 21.578C64.3431 21.578 64.5991 21.47 64.8111 21.254C65.0231 21.038 65.1291 20.78 65.1291 20.48C65.1291 20.18 65.0231 19.924 64.8111 19.712C64.5991 19.5 64.3431 19.394 64.0431 19.394C63.7391 19.394 63.4791 19.5 63.2631 19.712C63.0511 19.924 62.9451 20.18 62.9451 20.48C62.9451 20.784 63.0511 21.044 63.2631 21.26C63.4791 21.472 63.7391 21.578 64.0431 21.578ZM63.1191 29H64.9611V22.856H63.1191V29ZM69.4269 29.192C69.8549 29.192 70.2549 29.104 70.6269 28.928C70.9989 28.752 71.3209 28.506 71.5929 28.19V29H73.4349V18.68H71.5929V23.606C71.3489 23.31 71.0409 23.08 70.6689 22.916C70.3009 22.748 69.9029 22.664 69.4749 22.664C68.8829 22.664 68.3549 22.806 67.8909 23.09C67.4269 23.374 67.0629 23.762 66.7989 24.254C66.5349 24.746 66.4029 25.304 66.4029 25.928C66.4029 26.564 66.5389 27.128 66.8109 27.62C67.0829 28.112 67.4469 28.498 67.9029 28.778C68.3629 29.054 68.8709 29.192 69.4269 29.192ZM69.9789 27.626C69.4989 27.626 69.1049 27.468 68.7969 27.152C68.4929 26.832 68.3409 26.428 68.3409 25.94C68.3409 25.444 68.4969 25.036 68.8089 24.716C69.1249 24.392 69.5189 24.23 69.9909 24.23C70.4629 24.23 70.8549 24.392 71.1669 24.716C71.4789 25.036 71.6349 25.444 71.6349 25.94C71.6349 26.428 71.4789 26.832 71.1669 27.152C70.8589 27.468 70.4629 27.626 69.9789 27.626ZM78.3036 29.192C78.9516 29.192 79.5396 29.052 80.0676 28.772C80.5956 28.492 81.0036 28.104 81.2916 27.608L79.9656 26.942C79.7376 27.214 79.4996 27.412 79.2516 27.536C79.0076 27.66 78.7256 27.722 78.4056 27.722C77.8936 27.722 77.4816 27.58 77.1696 27.296C76.8576 27.012 76.7016 26.636 76.7016 26.168H81.4116C81.4236 26.064 81.4296 25.994 81.4296 25.958C81.4336 25.918 81.4356 25.872 81.4356 25.82C81.4356 25.192 81.2996 24.642 81.0276 24.17C80.7596 23.698 80.3836 23.33 79.8996 23.066C79.4196 22.798 78.8596 22.664 78.2196 22.664C77.5796 22.664 77.0016 22.81 76.4856 23.102C75.9736 23.39 75.5656 23.78 75.2616 24.272C74.9576 24.764 74.8056 25.316 74.8056 25.928C74.8056 26.548 74.9576 27.104 75.2616 27.596C75.5696 28.088 75.9876 28.478 76.5156 28.766C77.0436 29.05 77.6396 29.192 78.3036 29.192ZM76.7676 25.148C76.8076 24.792 76.9556 24.512 77.2116 24.308C77.4676 24.104 77.7956 24.002 78.1956 24.002C78.5756 24.002 78.8916 24.104 79.1436 24.308C79.3996 24.512 79.5596 24.792 79.6236 25.148H76.7676ZM84.8601 29H86.9541L87.7941 26.744H91.6821L92.5221 29H94.6161L90.6441 19.1H88.8381L84.8601 29ZM88.4601 25.04L89.7381 21.722L91.0221 25.04H88.4601ZM95.5665 29H97.4085V25.568C97.4085 25.34 97.4745 25.128 97.6065 24.932C97.7425 24.732 97.9165 24.57 98.1285 24.446C98.3445 24.322 98.5725 24.26 98.8125 24.26C99.1605 24.26 99.4885 24.36 99.7965 24.56L100.564 23.006C100.404 22.906 100.208 22.824 99.9765 22.76C99.7485 22.696 99.5265 22.664 99.3105 22.664C98.9305 22.664 98.5745 22.758 98.2425 22.946C97.9145 23.13 97.6365 23.394 97.4085 23.738V22.856H95.5665V29ZM104.144 29.192C104.548 29.192 104.928 29.134 105.284 29.018C105.64 28.906 105.934 28.764 106.166 28.592L105.536 27.35C105.252 27.57 104.884 27.68 104.432 27.68C104.076 27.68 103.762 27.602 103.49 27.446C103.222 27.29 103.014 27.08 102.866 26.816C102.718 26.548 102.644 26.252 102.644 25.928C102.644 25.632 102.712 25.35 102.848 25.082C102.988 24.814 103.19 24.596 103.454 24.428C103.718 24.26 104.04 24.176 104.42 24.176C104.872 24.176 105.244 24.286 105.536 24.506L106.166 23.264C105.942 23.088 105.646 22.944 105.278 22.832C104.914 22.72 104.534 22.664 104.138 22.664C103.646 22.664 103.192 22.752 102.776 22.928C102.36 23.104 101.998 23.344 101.69 23.648C101.382 23.952 101.142 24.3 100.97 24.692C100.798 25.084 100.712 25.498 100.712 25.934C100.712 26.39 100.802 26.816 100.982 27.212C101.162 27.604 101.41 27.948 101.726 28.244C102.042 28.54 102.406 28.772 102.818 28.94C103.234 29.108 103.676 29.192 104.144 29.192ZM107.406 29H109.248V25.364C109.248 25.008 109.366 24.71 109.602 24.47C109.838 24.226 110.16 24.104 110.568 24.104C110.968 24.104 111.282 24.228 111.51 24.476C111.742 24.72 111.858 25.062 111.858 25.502V29H113.7V25.112C113.7 24.624 113.598 24.198 113.394 23.834C113.19 23.466 112.908 23.18 112.548 22.976C112.192 22.768 111.778 22.664 111.306 22.664C110.882 22.664 110.492 22.746 110.136 22.91C109.78 23.07 109.484 23.28 109.248 23.54V18.68H107.406V29ZM116.418 21.578C116.718 21.578 116.974 21.47 117.186 21.254C117.398 21.038 117.504 20.78 117.504 20.48C117.504 20.18 117.398 19.924 117.186 19.712C116.974 19.5 116.718 19.394 116.418 19.394C116.114 19.394 115.854 19.5 115.638 19.712C115.426 19.924 115.32 20.18 115.32 20.48C115.32 20.784 115.426 21.044 115.638 21.26C115.854 21.472 116.114 21.578 116.418 21.578ZM115.494 29H117.336V22.856H115.494V29ZM121.252 29H122.482L125.716 22.856H123.544L121.87 26.564L120.196 22.856H118.024L121.252 29ZM129.39 29.192C130.038 29.192 130.626 29.052 131.154 28.772C131.682 28.492 132.09 28.104 132.378 27.608L131.052 26.942C130.824 27.214 130.586 27.412 130.338 27.536C130.094 27.66 129.812 27.722 129.492 27.722C128.98 27.722 128.568 27.58 128.256 27.296C127.944 27.012 127.788 26.636 127.788 26.168H132.498C132.51 26.064 132.516 25.994 132.516 25.958C132.52 25.918 132.522 25.872 132.522 25.82C132.522 25.192 132.386 24.642 132.114 24.17C131.846 23.698 131.47 23.33 130.986 23.066C130.506 22.798 129.946 22.664 129.306 22.664C128.666 22.664 128.088 22.81 127.572 23.102C127.06 23.39 126.652 23.78 126.348 24.272C126.044 24.764 125.892 25.316 125.892 25.928C125.892 26.548 126.044 27.104 126.348 27.596C126.656 28.088 127.074 28.478 127.602 28.766C128.13 29.05 128.726 29.192 129.39 29.192ZM127.854 25.148C127.894 24.792 128.042 24.512 128.298 24.308C128.554 24.104 128.882 24.002 129.282 24.002C129.662 24.002 129.978 24.104 130.23 24.308C130.486 24.512 130.646 24.792 130.71 25.148H127.854ZM136.478 29.192C136.906 29.192 137.306 29.104 137.678 28.928C138.05 28.752 138.372 28.506 138.644 28.19V29H140.486V18.68H138.644V23.606C138.4 23.31 138.092 23.08 137.72 22.916C137.352 22.748 136.954 22.664 136.526 22.664C135.934 22.664 135.406 22.806 134.942 23.09C134.478 23.374 134.114 23.762 133.85 24.254C133.586 24.746 133.454 25.304 133.454 25.928C133.454 26.564 133.59 27.128 133.862 27.62C134.134 28.112 134.498 28.498 134.954 28.778C135.414 29.054 135.922 29.192 136.478 29.192ZM137.03 27.626C136.55 27.626 136.156 27.468 135.848 27.152C135.544 26.832 135.392 26.428 135.392 25.94C135.392 25.444 135.548 25.036 135.86 24.716C136.176 24.392 136.57 24.23 137.042 24.23C137.514 24.23 137.906 24.392 138.218 24.716C138.53 25.036 138.686 25.444 138.686 25.94C138.686 26.428 138.53 26.832 138.218 27.152C137.91 27.468 137.514 27.626 137.03 27.626Z" fill="white"/>
<rect x="24" y="23" width="10" height="2" fill="#1C97F3"/>
</svg>
