<svg width="161" height="48" viewBox="0 0 161 48" fill="none" xmlns="http://www.w3.org/2000/svg">
<rect width="161" height="48" rx="24" fill="#1C97F3"/>
<circle cx="29" cy="24" r="16" fill="white"/>
<path d="M30.3131 29.0229V25.3131H34.0229V22.7328H30.3131V19.0229H27.7328V22.7328H24.0229V25.3131H27.7328V29.0229H30.3131Z" fill="#1C97F3"/>
<path d="M55.93 29.192C56.65 29.192 57.28 29.074 57.82 28.838C58.36 28.598 58.78 28.254 59.08 27.806C59.384 27.354 59.536 26.81 59.536 26.174C59.536 25.598 59.41 25.126 59.158 24.758C58.91 24.386 58.556 24.068 58.096 23.804C57.64 23.536 57.102 23.274 56.482 23.018C56.194 22.898 55.94 22.788 55.72 22.688C55.5 22.588 55.328 22.47 55.204 22.334C55.084 22.194 55.024 22.012 55.024 21.788C55.024 21.484 55.14 21.224 55.372 21.008C55.608 20.792 55.938 20.684 56.362 20.684C56.742 20.684 57.11 20.762 57.466 20.918C57.826 21.074 58.134 21.26 58.39 21.476L59.2 19.952C58.984 19.768 58.72 19.598 58.408 19.442C58.096 19.286 57.76 19.16 57.4 19.064C57.04 18.968 56.68 18.92 56.32 18.92C55.684 18.92 55.126 19.058 54.646 19.334C54.166 19.606 53.792 19.964 53.524 20.408C53.26 20.852 53.128 21.326 53.128 21.83C53.128 22.258 53.222 22.632 53.41 22.952C53.598 23.268 53.846 23.538 54.154 23.762C54.462 23.986 54.794 24.178 55.15 24.338C55.634 24.546 56.044 24.734 56.38 24.902C56.72 25.07 56.978 25.254 57.154 25.454C57.33 25.65 57.418 25.904 57.418 26.216C57.418 26.608 57.282 26.902 57.01 27.098C56.742 27.294 56.4 27.392 55.984 27.392C55.588 27.392 55.22 27.32 54.88 27.176C54.54 27.032 54.236 26.862 53.968 26.666C53.704 26.47 53.482 26.294 53.302 26.138L52.306 27.746C52.474 27.91 52.724 28.106 53.056 28.334C53.392 28.562 53.8 28.762 54.28 28.934C54.764 29.106 55.314 29.192 55.93 29.192ZM61.0157 29H62.8577V25.364C62.8577 25.008 62.9757 24.71 63.2117 24.47C63.4477 24.226 63.7697 24.104 64.1777 24.104C64.5777 24.104 64.8917 24.228 65.1197 24.476C65.3517 24.72 65.4677 25.062 65.4677 25.502V29H67.3097V25.112C67.3097 24.624 67.2077 24.198 67.0037 23.834C66.7997 23.466 66.5177 23.18 66.1577 22.976C65.8017 22.768 65.3877 22.664 64.9157 22.664C64.4917 22.664 64.1017 22.746 63.7457 22.91C63.3897 23.07 63.0937 23.28 62.8577 23.54V18.68H61.0157V29ZM72.1694 29.192C72.8494 29.192 73.4614 29.054 74.0054 28.778C74.5494 28.498 74.9794 28.114 75.2954 27.626C75.6154 27.134 75.7754 26.568 75.7754 25.928C75.7754 25.288 75.6154 24.724 75.2954 24.236C74.9794 23.744 74.5494 23.36 74.0054 23.084C73.4614 22.804 72.8494 22.664 72.1694 22.664C71.4934 22.664 70.8814 22.804 70.3334 23.084C69.7894 23.36 69.3574 23.744 69.0374 24.236C68.7214 24.724 68.5634 25.288 68.5634 25.928C68.5634 26.568 68.7214 27.134 69.0374 27.626C69.3574 28.114 69.7894 28.498 70.3334 28.778C70.8814 29.054 71.4934 29.192 72.1694 29.192ZM72.1694 27.62C71.8574 27.62 71.5734 27.548 71.3174 27.404C71.0654 27.26 70.8654 27.062 70.7174 26.81C70.5694 26.554 70.4954 26.26 70.4954 25.928C70.4954 25.596 70.5694 25.304 70.7174 25.052C70.8654 24.796 71.0654 24.596 71.3174 24.452C71.5734 24.308 71.8574 24.236 72.1694 24.236C72.4854 24.236 72.7694 24.308 73.0214 24.452C73.2774 24.596 73.4794 24.796 73.6274 25.052C73.7794 25.304 73.8554 25.596 73.8554 25.928C73.8554 26.26 73.7794 26.554 73.6274 26.81C73.4794 27.062 73.2774 27.26 73.0214 27.404C72.7694 27.548 72.4854 27.62 72.1694 27.62ZM79.1617 29H80.3917L81.9277 25.454L83.4637 29H84.6997L87.9277 22.856H85.8217L84.1417 26.546L82.5577 22.856H81.3037L79.7197 26.546L78.0397 22.856H75.9337L79.1617 29ZM90.696 29H92.79L93.63 26.744H97.518L98.358 29H100.452L96.48 19.1H94.674L90.696 29ZM94.296 25.04L95.574 21.722L96.858 25.04H94.296ZM101.402 29H103.244V25.568C103.244 25.34 103.31 25.128 103.442 24.932C103.578 24.732 103.752 24.57 103.964 24.446C104.18 24.322 104.408 24.26 104.648 24.26C104.996 24.26 105.324 24.36 105.632 24.56L106.4 23.006C106.24 22.906 106.044 22.824 105.812 22.76C105.584 22.696 105.362 22.664 105.146 22.664C104.766 22.664 104.41 22.758 104.078 22.946C103.75 23.13 103.472 23.394 103.244 23.738V22.856H101.402V29ZM109.98 29.192C110.384 29.192 110.764 29.134 111.12 29.018C111.476 28.906 111.77 28.764 112.002 28.592L111.372 27.35C111.088 27.57 110.72 27.68 110.268 27.68C109.912 27.68 109.598 27.602 109.326 27.446C109.058 27.29 108.85 27.08 108.702 26.816C108.554 26.548 108.48 26.252 108.48 25.928C108.48 25.632 108.548 25.35 108.684 25.082C108.824 24.814 109.026 24.596 109.29 24.428C109.554 24.26 109.876 24.176 110.256 24.176C110.708 24.176 111.08 24.286 111.372 24.506L112.002 23.264C111.778 23.088 111.482 22.944 111.114 22.832C110.75 22.72 110.37 22.664 109.974 22.664C109.482 22.664 109.028 22.752 108.612 22.928C108.196 23.104 107.834 23.344 107.526 23.648C107.218 23.952 106.978 24.3 106.806 24.692C106.634 25.084 106.548 25.498 106.548 25.934C106.548 26.39 106.638 26.816 106.818 27.212C106.998 27.604 107.246 27.948 107.562 28.244C107.878 28.54 108.242 28.772 108.654 28.94C109.07 29.108 109.512 29.192 109.98 29.192ZM113.242 29H115.084V25.364C115.084 25.008 115.202 24.71 115.438 24.47C115.674 24.226 115.996 24.104 116.404 24.104C116.804 24.104 117.118 24.228 117.346 24.476C117.578 24.72 117.694 25.062 117.694 25.502V29H119.536V25.112C119.536 24.624 119.434 24.198 119.23 23.834C119.026 23.466 118.744 23.18 118.384 22.976C118.028 22.768 117.614 22.664 117.142 22.664C116.718 22.664 116.328 22.746 115.972 22.91C115.616 23.07 115.32 23.28 115.084 23.54V18.68H113.242V29ZM122.254 21.578C122.554 21.578 122.81 21.47 123.022 21.254C123.234 21.038 123.34 20.78 123.34 20.48C123.34 20.18 123.234 19.924 123.022 19.712C122.81 19.5 122.554 19.394 122.254 19.394C121.95 19.394 121.69 19.5 121.474 19.712C121.262 19.924 121.156 20.18 121.156 20.48C121.156 20.784 121.262 21.044 121.474 21.26C121.69 21.472 121.95 21.578 122.254 21.578ZM121.33 29H123.172V22.856H121.33V29ZM127.088 29H128.318L131.552 22.856H129.38L127.706 26.564L126.032 22.856H123.859L127.088 29ZM135.226 29.192C135.874 29.192 136.462 29.052 136.99 28.772C137.518 28.492 137.926 28.104 138.214 27.608L136.888 26.942C136.66 27.214 136.422 27.412 136.174 27.536C135.93 27.66 135.648 27.722 135.328 27.722C134.816 27.722 134.404 27.58 134.092 27.296C133.78 27.012 133.624 26.636 133.624 26.168H138.334C138.346 26.064 138.352 25.994 138.352 25.958C138.356 25.918 138.358 25.872 138.358 25.82C138.358 25.192 138.222 24.642 137.95 24.17C137.682 23.698 137.306 23.33 136.822 23.066C136.342 22.798 135.782 22.664 135.142 22.664C134.502 22.664 133.924 22.81 133.408 23.102C132.896 23.39 132.488 23.78 132.184 24.272C131.88 24.764 131.728 25.316 131.728 25.928C131.728 26.548 131.88 27.104 132.184 27.596C132.492 28.088 132.91 28.478 133.438 28.766C133.966 29.05 134.562 29.192 135.226 29.192ZM133.69 25.148C133.73 24.792 133.878 24.512 134.134 24.308C134.39 24.104 134.718 24.002 135.118 24.002C135.498 24.002 135.814 24.104 136.066 24.308C136.322 24.512 136.482 24.792 136.546 25.148H133.69ZM142.314 29.192C142.742 29.192 143.142 29.104 143.514 28.928C143.886 28.752 144.208 28.506 144.48 28.19V29H146.322V18.68H144.48V23.606C144.236 23.31 143.928 23.08 143.556 22.916C143.188 22.748 142.79 22.664 142.362 22.664C141.77 22.664 141.242 22.806 140.778 23.09C140.314 23.374 139.95 23.762 139.686 24.254C139.422 24.746 139.29 25.304 139.29 25.928C139.29 26.564 139.426 27.128 139.698 27.62C139.97 28.112 140.334 28.498 140.79 28.778C141.25 29.054 141.758 29.192 142.314 29.192ZM142.866 27.626C142.386 27.626 141.992 27.468 141.684 27.152C141.38 26.832 141.228 26.428 141.228 25.94C141.228 25.444 141.384 25.036 141.696 24.716C142.012 24.392 142.406 24.23 142.878 24.23C143.35 24.23 143.742 24.392 144.054 24.716C144.366 25.036 144.522 25.444 144.522 25.94C144.522 26.428 144.366 26.832 144.054 27.152C143.746 27.468 143.35 27.626 142.866 27.626Z" fill="white"/>
</svg>
