<svg width="16" height="18" viewBox="0 0 16 18" fill="none" xmlns="http://www.w3.org/2000/svg">
<g clip-path="url(#clip0_5_435)">
<path d="M1.9 16.4178C1.92725 16.8462 2.11934 17.2483 2.43716 17.5422C2.75498 17.8361 3.17464 17.9998 3.61071 17.9998H12.3893C12.8254 17.9998 13.245 17.8361 13.5628 17.5422C13.8807 17.2483 14.0727 16.8462 14.1 16.4178L14.8571 4.49982H1.14286L1.9 16.4178ZM4.40393 10.2373L7.59607 6.9235C7.6476 6.86869 7.71008 6.82496 7.77959 6.79505C7.8491 6.76515 7.92414 6.74971 8 6.74971C8.07586 6.74971 8.1509 6.76515 8.22041 6.79505C8.28992 6.82496 8.3524 6.86869 8.40393 6.9235L11.5961 10.2373C11.9561 10.6107 11.7011 11.2498 11.1918 11.2498H9.14286V15.1873C9.14286 15.3365 9.08265 15.4796 8.97549 15.5851C8.86833 15.6906 8.72298 15.7498 8.57143 15.7498H7.42857C7.27702 15.7498 7.13167 15.6906 7.02451 15.5851C6.91735 15.4796 6.85714 15.3365 6.85714 15.1873V11.2498H4.80821C4.29893 11.2498 4.04393 10.6107 4.40393 10.2373ZM15.4286 1.12482H11.1429L10.8071 0.467401C10.736 0.326852 10.6265 0.208624 10.4908 0.126019C10.3552 0.0434148 10.1988 -0.000289557 10.0393 -0.000176942H5.95714C5.79799 -0.000779187 5.64189 0.0427622 5.50672 0.125459C5.37154 0.208155 5.26277 0.326662 5.19286 0.467401L4.85714 1.12482H0.571429C0.419876 1.12482 0.274531 1.18409 0.167368 1.28958C0.0602039 1.39507 0 1.53814 0 1.68732L0 2.81232C0 2.96151 0.0602039 3.10458 0.167368 3.21007C0.274531 3.31556 0.419876 3.37482 0.571429 3.37482H15.4286C15.5801 3.37482 15.7255 3.31556 15.8326 3.21007C15.9398 3.10458 16 2.96151 16 2.81232V1.68732C16 1.53814 15.9398 1.39507 15.8326 1.28958C15.7255 1.18409 15.5801 1.12482 15.4286 1.12482Z" fill="#858BB2"/>
</g>
<defs>
<clipPath id="clip0_5_435">
<rect width="16" height="18" fill="white"/>
</clipPath>
</defs>
</svg>
